<svg xmlns="http://www.w3.org/2000/svg" xmlns:xlink="http://www.w3.org/1999/xlink" width="500" zoomAndPan="magnify" viewBox="0 0 375 374.999991" height="500" preserveAspectRatio="xMidYMid meet" version="1.0"><defs><clipPath id="98d2968d14"><path d="M 243 10.253906 L 361.050781 10.253906 L 361.050781 142 L 243 142 Z M 243 10.253906 " clip-rule="nonzero"/></clipPath><clipPath id="c52d0c1c80"><path d="M 13.800781 279 L 99 279 L 99 365 L 13.800781 365 Z M 13.800781 279 " clip-rule="nonzero"/></clipPath></defs><g clip-path="url(#98d2968d14)"><path fill="#660000" d="M 258 75.785156 C 269.191406 79.703125 279.34375 86.421875 287.296875 95.289062 C 294.175781 102.949219 299.273438 112.058594 302.269531 121.839844 C 305.253906 112.058594 310.355469 102.949219 317.230469 95.289062 C 325.195312 86.421875 335.34375 79.703125 346.539062 75.785156 C 335.34375 71.875 325.195312 65.164062 317.230469 56.285156 C 310.355469 48.625 305.253906 39.515625 302.269531 29.734375 C 299.273438 39.515625 294.175781 48.625 287.296875 56.285156 C 279.34375 65.164062 269.191406 71.875 258 75.785156 Z M 302.269531 141.089844 C 300.710938 141.089844 299.421875 139.882812 299.320312 138.324219 C 298.40625 123.886719 292.570312 110.003906 282.910156 99.234375 C 273.25 88.460938 260.074219 81.167969 245.8125 78.695312 C 244.402344 78.457031 243.371094 77.222656 243.371094 75.785156 C 243.371094 74.355469 244.402344 73.128906 245.8125 72.878906 C 260.074219 70.410156 273.25 63.117188 282.910156 52.347656 C 292.570312 41.582031 298.40625 27.691406 299.320312 13.253906 C 299.421875 11.703125 300.710938 10.488281 302.269531 10.488281 C 303.828125 10.488281 305.109375 11.703125 305.210938 13.253906 C 306.132812 27.699219 311.957031 41.582031 321.628906 52.347656 C 331.289062 63.117188 344.464844 70.410156 358.714844 72.878906 C 360.132812 73.128906 361.167969 74.355469 361.167969 75.785156 C 361.167969 77.222656 360.132812 78.457031 358.714844 78.695312 C 344.464844 81.167969 331.289062 88.460938 321.628906 99.234375 C 311.957031 109.996094 306.132812 123.886719 305.210938 138.324219 C 305.109375 139.882812 303.828125 141.089844 302.269531 141.089844 " fill-opacity="1" fill-rule="nonzero"/></g><g clip-path="url(#c52d0c1c80)"><path fill="#660000" d="M 28.234375 322.21875 C 35.019531 324.800781 41.167969 328.707031 46.125 333.675781 C 50.515625 338.054688 53.890625 343.171875 56.109375 348.683594 C 58.324219 343.171875 61.707031 338.054688 66.085938 333.675781 C 71.054688 328.707031 77.203125 324.800781 83.988281 322.21875 C 77.203125 319.636719 71.054688 315.726562 66.085938 310.757812 C 61.707031 306.378906 58.324219 301.265625 56.109375 295.75 C 53.890625 301.265625 50.515625 306.378906 46.125 310.757812 C 41.167969 315.726562 35.019531 319.628906 28.234375 322.21875 Z M 56.109375 364.496094 C 54.5625 364.496094 53.28125 363.304688 53.171875 361.757812 C 52.542969 352.945312 48.5625 344.453125 41.960938 337.84375 C 35.292969 331.179688 26.1875 326.671875 16.324219 325.132812 C 14.882812 324.910156 13.824219 323.675781 13.824219 322.21875 C 13.824219 320.761719 14.882812 319.527344 16.324219 319.304688 C 26.1875 317.765625 35.292969 313.25 41.960938 306.582031 C 48.5625 299.984375 52.542969 291.492188 53.171875 282.679688 C 53.28125 281.128906 54.5625 279.933594 56.109375 279.933594 C 57.660156 279.933594 58.941406 281.128906 59.050781 282.679688 C 59.679688 291.492188 63.660156 299.984375 70.261719 306.582031 C 76.925781 313.25 86.035156 317.765625 95.898438 319.304688 C 97.328125 319.527344 98.386719 320.761719 98.386719 322.21875 C 98.386719 323.675781 97.328125 324.910156 95.898438 325.132812 C 86.035156 326.671875 76.925781 331.179688 70.261719 337.84375 C 63.660156 344.453125 59.679688 352.945312 59.050781 361.757812 C 58.941406 363.304688 57.660156 364.496094 56.109375 364.496094 " fill-opacity="1" fill-rule="nonzero"/></g><path fill="#660000" d="M 248.652344 342.1875 C 247.140625 342.1875 245.601562 342 244.042969 341.597656 C 234.992188 339.253906 229.808594 330.589844 227.984375 323.261719 C 226.417969 317.039062 226.546875 310.6875 226.667969 304.546875 C 226.695312 303.089844 226.722656 301.632812 226.730469 300.175781 C 226.804688 281.398438 222.878906 262.378906 215.363281 245.160156 C 211.457031 236.207031 207.214844 231.496094 202.023438 230.355469 C 193.101562 228.410156 185.035156 238.207031 180.859375 247.207031 C 172.941406 264.304688 169.132812 283.316406 169.851562 302.160156 L 169.953125 304.5625 C 170.421875 315.5625 170.964844 328.015625 162.246094 335.742188 C 158.160156 339.363281 152.824219 340.960938 146.832031 340.398438 C 139.199219 339.660156 131.519531 335.375 126.773438 329.1875 C 119.25 319.378906 117.453125 307 115.71875 295.023438 L 115.589844 294.136719 C 110.730469 260.644531 103.972656 231.957031 94.929688 206.429688 C 92.332031 199.113281 89.4375 191.738281 86.632812 184.601562 C 81.277344 170.957031 75.746094 156.84375 71.996094 142.34375 C 65.183594 115.929688 65.847656 92.875 73.976562 73.8125 C 84.035156 50.183594 106.757812 34.613281 129.1875 35.921875 C 141.9375 36.660156 153.367188 42.613281 164.421875 48.375 C 175.152344 53.972656 185.292969 59.246094 196.375 60.019531 C 208.699219 60.886719 219.667969 54.523438 231.292969 47.796875 C 240.171875 42.660156 249.351562 37.339844 259.503906 35.203125 C 270.742188 32.824219 283.175781 34.75 294.488281 40.632812 C 295.9375 41.386719 296.496094 43.167969 295.742188 44.613281 C 294.996094 46.0625 293.207031 46.625 291.769531 45.867188 C 281.664062 40.613281 270.640625 38.882812 260.71875 40.972656 C 251.492188 42.917969 242.726562 48 234.242188 52.902344 C 222.371094 59.78125 210.082031 66.878906 195.957031 65.910156 C 183.652344 65.042969 172.488281 59.234375 161.691406 53.613281 C 150.703125 47.886719 140.332031 42.476562 128.847656 41.8125 C 108.804688 40.59375 88.503906 54.746094 79.398438 76.125 C 71.792969 93.960938 71.21875 115.746094 77.699219 140.867188 C 81.371094 155.027344 86.835938 168.964844 92.128906 182.445312 C 94.949219 189.625 97.863281 197.046875 100.488281 204.457031 C 109.671875 230.363281 116.511719 259.410156 121.425781 293.289062 L 121.554688 294.183594 C 123.1875 305.402344 124.863281 317.007812 131.457031 325.601562 C 135.179688 330.449219 141.429688 333.953125 147.394531 334.515625 C 150.410156 334.8125 154.761719 334.488281 158.335938 331.328125 C 164.945312 325.472656 164.496094 314.972656 164.050781 304.824219 L 163.953125 302.378906 C 163.195312 282.605469 167.195312 262.675781 175.503906 244.714844 C 180.847656 233.222656 190.953125 221.890625 203.296875 224.59375 C 212.746094 226.675781 217.796875 235.976562 220.765625 242.800781 C 228.609375 260.757812 232.703125 280.613281 232.628906 300.203125 C 232.621094 301.6875 232.59375 303.171875 232.566406 304.65625 C 232.445312 310.675781 232.328125 316.363281 233.699219 321.832031 C 235.054688 327.261719 238.964844 334.183594 245.519531 335.878906 C 255.078125 338.339844 264.378906 328.644531 268.988281 318.585938 C 275.800781 303.6875 278.105469 286.882812 280.328125 270.621094 C 281.554688 261.652344 282.828125 252.367188 284.835938 243.378906 C 289.003906 224.75 296.460938 206.910156 303.679688 189.652344 L 306.4375 183.042969 C 314.242188 164.238281 322.078125 144.121094 324.605469 123.09375 C 325.941406 111.929688 325.59375 101.164062 323.5625 91.097656 C 323.242188 89.5 324.273438 87.941406 325.867188 87.621094 C 327.464844 87.289062 329.023438 88.332031 329.34375 89.933594 C 331.5 100.609375 331.878906 112.003906 330.46875 123.792969 C 327.851562 145.570312 319.859375 166.125 311.882812 185.3125 L 309.128906 191.929688 C 302.011719 208.949219 294.644531 226.546875 290.597656 244.671875 C 288.632812 253.417969 287.378906 262.574219 286.171875 271.421875 C 283.894531 288.109375 281.535156 305.347656 274.355469 321.039062 C 269.265625 332.148438 259.679688 342.1875 248.652344 342.1875 " fill-opacity="1" fill-rule="nonzero"/><path fill="#660000" d="M 101.714844 106.941406 C 100.195312 106.941406 98.902344 105.773438 98.773438 104.222656 C 97.945312 93.851562 103.367188 83.261719 112.269531 77.867188 C 113.664062 77.019531 115.480469 77.46875 116.316406 78.863281 C 117.167969 80.253906 116.722656 82.070312 115.324219 82.910156 C 108.289062 87.179688 104.003906 95.546875 104.65625 103.753906 C 104.792969 105.375 103.578125 106.804688 101.957031 106.933594 C 101.871094 106.933594 101.796875 106.941406 101.714844 106.941406 " fill-opacity="1" fill-rule="nonzero"/><path fill="#660000" d="M 123.878906 194.058594 C 122.898438 194.058594 121.941406 193.570312 121.378906 192.6875 C 111.246094 176.691406 104.085938 158.402344 100.675781 139.78125 C 100.378906 138.175781 101.449219 136.636719 103.042969 136.339844 C 104.648438 136.035156 106.1875 137.105469 106.480469 138.710938 C 109.753906 156.605469 116.632812 174.175781 126.367188 189.523438 C 127.242188 190.90625 126.828125 192.722656 125.453125 193.597656 C 124.964844 193.914062 124.421875 194.058594 123.878906 194.058594 " fill-opacity="1" fill-rule="nonzero"/></svg>