<svg xmlns="http://www.w3.org/2000/svg" xmlns:xlink="http://www.w3.org/1999/xlink" width="500" zoomAndPan="magnify" viewBox="0 0 375 374.999991" height="500" preserveAspectRatio="xMidYMid meet" version="1.0"><path fill="#660000" d="M 304.636719 45.027344 C 300.332031 27.375 290.417969 14.855469 275.960938 8.808594 C 255.113281 0.105469 230.796875 6.777344 219.984375 13.253906 C 200.15625 24.988281 175.507812 24.992188 155.289062 13.027344 C 144.855469 6.773438 120.53125 0.105469 99.691406 8.8125 C 85.234375 14.855469 75.320312 27.378906 71.015625 45.027344 C 66 65.597656 70.300781 93.546875 83.800781 128.105469 C 84.296875 129.371094 85.515625 130.203125 86.875 130.203125 L 124.898438 130.203125 C 126.03125 130.203125 127.085938 129.625 127.691406 128.664062 L 143.070312 104.261719 L 232.585938 104.261719 L 247.964844 128.664062 C 248.570312 129.625 249.621094 130.203125 250.757812 130.203125 L 288.777344 130.203125 C 290.136719 130.203125 291.355469 129.371094 291.851562 128.105469 C 305.347656 93.546875 309.652344 65.597656 304.636719 45.027344 Z M 286.511719 123.605469 L 252.578125 123.605469 L 237.195312 99.199219 C 236.59375 98.238281 235.539062 97.660156 234.40625 97.660156 L 141.25 97.660156 C 140.117188 97.660156 139.0625 98.238281 138.457031 99.199219 L 123.078125 123.605469 L 89.140625 123.605469 C 76.957031 91.734375 72.902344 65.140625 77.429688 46.59375 C 81.273438 30.839844 89.617188 20.179688 102.238281 14.902344 C 119.851562 7.546875 141.875 12.695312 152.308594 18.933594 C 174.222656 31.894531 201.433594 31.890625 223.757812 18.6875 C 233.773438 12.6875 255.804688 7.539062 273.414062 14.902344 C 286.03125 20.175781 294.378906 30.839844 298.222656 46.59375 C 302.75 65.140625 298.695312 91.734375 286.511719 123.605469 Z M 286.511719 123.605469 " fill-opacity="1" fill-rule="nonzero"/><path fill="#660000" d="M 278.53125 218.589844 L 254.058594 218.589844 L 254.058594 190.730469 C 254.058594 188.90625 252.582031 187.429688 250.757812 187.429688 L 124.898438 187.429688 C 123.074219 187.429688 121.597656 188.90625 121.597656 190.730469 L 121.597656 218.589844 L 97.121094 218.589844 C 95.984375 218.589844 94.933594 219.171875 94.328125 220.128906 C 93.722656 221.089844 93.652344 222.289062 94.140625 223.3125 C 95.871094 226.933594 97.515625 230.257812 98.996094 233.140625 C 102.980469 240.921875 104.921875 249.550781 104.617188 258.101562 C 103.550781 287.917969 107.078125 342.277344 142.679688 371.292969 C 146.351562 374.285156 151.183594 375.113281 155.601562 373.519531 C 159.953125 371.941406 163.085938 368.253906 163.972656 363.664062 C 165.8125 354.203125 169.558594 328.410156 164.726562 293.355469 C 163.027344 281.019531 167.136719 272.429688 176.945312 267.816406 C 183.761719 264.605469 191.898438 264.605469 198.707031 267.816406 C 208.515625 272.429688 212.628906 281.019531 210.929688 293.355469 C 206.09375 328.40625 209.839844 354.203125 211.679688 363.664062 C 212.566406 368.253906 215.699219 371.941406 220.050781 373.519531 C 221.527344 374.054688 223.054688 374.320312 224.570312 374.320312 C 227.570312 374.320312 230.527344 373.285156 232.972656 371.292969 C 268.574219 342.277344 272.101562 287.917969 271.035156 258.105469 C 270.730469 249.546875 272.679688 240.914062 276.664062 233.140625 C 278.136719 230.253906 279.785156 226.933594 281.511719 223.3125 C 282 222.285156 281.929688 221.089844 281.324219 220.128906 C 280.71875 219.171875 279.664062 218.589844 278.53125 218.589844 Z M 128.199219 194.03125 L 247.457031 194.03125 L 247.457031 218.589844 L 128.199219 218.589844 Z M 270.785156 230.128906 C 266.289062 238.902344 264.09375 248.65625 264.441406 258.339844 C 265.261719 281.355469 263.4375 337.949219 228.800781 366.171875 C 226.945312 367.6875 224.519531 368.117188 222.300781 367.3125 C 220.117188 366.523438 218.609375 364.734375 218.15625 362.410156 C 216.773438 355.277344 212.640625 329.285156 217.46875 294.257812 C 220.132812 274.917969 210.265625 265.957031 201.519531 261.839844 C 197.230469 259.824219 192.527344 258.816406 187.824219 258.816406 C 183.125 258.816406 178.421875 259.824219 174.132812 261.839844 C 165.390625 265.957031 155.523438 274.917969 158.1875 294.257812 C 163.011719 329.285156 158.878906 355.277344 157.496094 362.410156 C 157.042969 364.734375 155.535156 366.523438 153.351562 367.3125 C 151.136719 368.121094 148.707031 367.691406 146.851562 366.171875 C 112.214844 337.949219 110.390625 281.355469 111.210938 258.339844 C 111.558594 248.667969 109.367188 238.914062 104.867188 230.128906 C 104.085938 228.601562 103.253906 226.949219 102.390625 225.191406 L 273.265625 225.191406 C 272.398438 226.949219 271.566406 228.601562 270.785156 230.128906 Z M 270.785156 230.128906 " fill-opacity="1" fill-rule="nonzero"/><path fill="#660000" d="M 187.867188 117.445312 C 186.042969 117.445312 184.566406 118.921875 184.566406 120.746094 L 184.566406 162.273438 L 170.265625 148.207031 C 168.964844 146.925781 166.867188 146.941406 165.597656 148.246094 C 164.320312 149.542969 164.339844 151.632812 165.636719 152.914062 L 185.546875 172.496094 C 185.695312 172.640625 185.878906 172.710938 186.042969 172.824219 C 186.230469 172.949219 186.394531 173.101562 186.605469 173.191406 C 187.007812 173.355469 187.433594 173.445312 187.863281 173.445312 C 187.867188 173.445312 187.867188 173.445312 187.867188 173.445312 C 187.917969 173.445312 187.957031 173.417969 188.003906 173.417969 C 188.382812 173.398438 188.761719 173.339844 189.117188 173.195312 C 189.53125 173.023438 189.90625 172.769531 190.21875 172.457031 L 210.019531 152.910156 C 211.316406 151.625 211.332031 149.539062 210.050781 148.242188 C 208.765625 146.941406 206.675781 146.929688 205.382812 148.210938 L 191.167969 162.242188 L 191.167969 120.746094 C 191.167969 118.921875 189.691406 117.445312 187.867188 117.445312 Z M 187.867188 117.445312 " fill-opacity="1" fill-rule="nonzero"/></svg>