<svg xmlns="http://www.w3.org/2000/svg" xmlns:xlink="http://www.w3.org/1999/xlink" width="500" zoomAndPan="magnify" viewBox="0 0 375 374.999991" height="500" preserveAspectRatio="xMidYMid meet" version="1.0"><path fill="#660000" d="M 111.128906 183.84375 C 93.570312 148.75 103.679688 109.929688 137.953125 89.96875 C 90.882812 92.890625 74.15625 157.035156 111.128906 183.84375 Z M 111.128906 183.84375 " fill-opacity="1" fill-rule="nonzero"/><path fill="#660000" d="M 351.863281 75.960938 C 349.675781 73.476562 347.171875 71.378906 344.34375 69.664062 C 341.519531 67.949219 338.5 66.691406 335.289062 65.898438 C 314.535156 60.324219 293.175781 62.894531 272.390625 66.042969 C 243.035156 50.585938 206.582031 58.671875 184.957031 70.476562 C 98.75 24.828125 33.964844 107.375 62.546875 186.90625 C 42.355469 200.503906 0.964844 228.84375 13.785156 257.269531 C 30.210938 281.808594 72.746094 276.152344 97.917969 273.675781 L 106.464844 319.515625 C 111.550781 348.9375 154.453125 350.78125 161.960938 321.867188 L 181.164062 252.785156 C 188.523438 249.992188 195.933594 247.316406 203.246094 244.421875 L 217.726562 321.035156 C 217.863281 321.84375 218.035156 322.644531 218.242188 323.4375 C 218.449219 324.230469 218.691406 325.011719 218.96875 325.78125 C 219.246094 326.554688 219.558594 327.3125 219.902344 328.054688 C 220.246094 328.800781 220.625 329.527344 221.035156 330.238281 C 221.441406 330.945312 221.882812 331.636719 222.355469 332.308594 C 222.824219 332.980469 223.324219 333.628906 223.855469 334.253906 C 224.382812 334.882812 224.9375 335.484375 225.519531 336.058594 C 226.101562 336.636719 226.710938 337.1875 227.339844 337.710938 C 227.972656 338.234375 228.625 338.726562 229.300781 339.191406 C 229.976562 339.65625 230.671875 340.089844 231.382812 340.492188 C 232.097656 340.898438 232.828125 341.265625 233.574219 341.605469 C 234.320312 341.945312 235.082031 342.246094 235.855469 342.519531 C 236.628906 342.789062 237.414062 343.023438 238.207031 343.226562 C 239.003906 343.425781 239.804688 343.589844 240.617188 343.71875 C 241.425781 343.847656 242.238281 343.941406 243.054688 344 C 243.875 344.054688 244.691406 344.074219 245.511719 344.058594 C 264.289062 343.96875 273.882812 329.535156 275.359375 309.417969 C 279.128906 286.726562 281.546875 263.894531 282.609375 240.917969 C 282.636719 225.214844 291.691406 209.605469 297.277344 194.773438 C 317.425781 180.464844 373.871094 137.265625 348.394531 110.675781 C 354.808594 100.847656 360.46875 86.414062 351.863281 75.960938 Z M 74.746094 114.433594 C 93.273438 68.195312 138.332031 58.945312 181.941406 83.105469 C 188.835938 86.886719 195.351562 91.234375 201.492188 96.148438 C 207.628906 101.066406 213.296875 106.472656 218.496094 112.371094 L 227.855469 103.988281 C 219.074219 94.101562 209.175781 85.496094 198.160156 78.175781 C 202.832031 75.949219 207.671875 74.179688 212.675781 72.859375 C 217.675781 71.539062 222.761719 70.695312 227.921875 70.324219 C 233.082031 69.957031 238.234375 70.070312 243.375 70.664062 C 248.515625 71.257812 253.554688 72.324219 258.496094 73.863281 C 288.957031 84.34375 308.976562 108.566406 297.359375 148.433594 C 267.648438 167.523438 236.238281 183.199219 203.121094 195.460938 L 207.824219 207.105469 C 238.179688 194.15625 267.128906 178.597656 294.679688 160.429688 C 292.226562 171.058594 289.019531 181.453125 285.050781 191.613281 C 283 192.847656 280.96875 194.117188 278.90625 195.324219 C 257.222656 207.699219 234.808594 218.566406 211.664062 227.925781 C 211.140625 227.054688 210.558594 226.222656 209.917969 225.4375 C 209.273438 224.648438 208.578125 223.910156 207.828125 223.222656 C 207.074219 222.539062 206.28125 221.910156 205.4375 221.339844 C 204.59375 220.769531 203.714844 220.265625 202.800781 219.824219 C 201.882812 219.382812 200.941406 219.007812 199.96875 218.703125 C 199 218.402344 198.011719 218.167969 197.007812 218.011719 C 196.003906 217.851562 194.992188 217.765625 193.976562 217.753906 C 192.960938 217.742188 191.949219 217.804688 190.941406 217.9375 C 189.933594 218.074219 188.9375 218.285156 187.960938 218.566406 C 186.984375 218.847656 186.03125 219.195312 185.105469 219.617188 C 184.179688 220.035156 183.289062 220.519531 182.433594 221.070312 C 181.578125 221.621094 180.769531 222.230469 180.003906 222.898438 C 179.238281 223.566406 178.523438 224.289062 177.863281 225.0625 C 177.199219 225.832031 176.601562 226.652344 176.058594 227.511719 C 175.515625 228.371094 175.039062 229.265625 174.628906 230.199219 C 174.21875 231.128906 173.878906 232.082031 173.605469 233.0625 L 170.789062 243.199219 C 150.316406 250.320312 129.441406 255.949219 108.164062 260.082031 C 107.625 254.1875 106.402344 248.433594 104.496094 242.828125 C 102.589844 237.222656 100.054688 231.914062 96.890625 226.910156 C 83.820312 208.3125 55.5 160.121094 74.746094 114.433594 Z M 45.03125 264.445312 C 21.824219 261.699219 11.039062 249.195312 24.929688 227.640625 C 30.105469 219.984375 35.871094 212.800781 42.222656 206.089844 C 48.578125 199.382812 55.433594 193.234375 62.796875 187.644531 C 68.5625 204.25 76.5 219.738281 86.605469 234.117188 C 89.199219 238.394531 91.269531 242.910156 92.820312 247.667969 C 94.375 252.421875 95.363281 257.289062 95.796875 262.273438 C 78.972656 265.289062 62.050781 266.011719 45.03125 264.445312 Z M 149.851562 318.507812 C 149.625 319.378906 149.320312 320.222656 148.949219 321.039062 C 148.574219 321.859375 148.136719 322.640625 147.628906 323.386719 C 147.125 324.128906 146.558594 324.824219 145.933594 325.472656 C 145.3125 326.121094 144.636719 326.714844 143.914062 327.246094 C 143.1875 327.78125 142.425781 328.25 141.621094 328.65625 C 140.816406 329.058594 139.984375 329.390625 139.125 329.65625 C 138.261719 329.917969 137.386719 330.105469 136.492188 330.222656 C 135.601562 330.335938 134.707031 330.375 133.804688 330.335938 C 132.90625 330.296875 132.019531 330.183594 131.136719 329.996094 C 130.257812 329.808594 129.402344 329.546875 128.566406 329.210938 C 127.730469 328.878906 126.929688 328.476562 126.160156 328.003906 C 125.394531 327.535156 124.671875 327.003906 123.996094 326.410156 C 123.316406 325.816406 122.695312 325.171875 122.128906 324.472656 C 121.5625 323.773438 121.058594 323.035156 120.617188 322.25 C 120.171875 321.464844 119.800781 320.648438 119.5 319.800781 C 119.195312 318.953125 118.964844 318.089844 118.808594 317.203125 L 110.347656 271.808594 C 129.453125 268.355469 148.246094 263.675781 166.738281 257.765625 Z M 185.246094 238.101562 C 185.300781 237.300781 185.464844 236.523438 185.746094 235.769531 C 186.023438 235.015625 186.402344 234.316406 186.882812 233.671875 C 187.363281 233.027344 187.925781 232.460938 188.566406 231.980469 C 189.210938 231.496094 189.910156 231.113281 190.660156 230.832031 C 191.414062 230.546875 192.191406 230.378906 192.992188 230.320312 C 193.792969 230.261719 194.585938 230.316406 195.375 230.484375 C 196.160156 230.65625 196.90625 230.933594 197.609375 231.316406 C 198.316406 231.699219 198.953125 232.175781 199.523438 232.746094 C 194.78125 234.582031 190.019531 236.367188 185.246094 238.101562 Z M 270.0625 240.351562 C 269.019531 262.824219 266.65625 285.160156 262.972656 307.355469 C 261.492188 319.894531 258.878906 331.496094 245.46875 331.5 C 244.554688 331.523438 243.648438 331.464844 242.746094 331.328125 C 241.839844 331.1875 240.957031 330.96875 240.09375 330.667969 C 239.230469 330.371094 238.402344 329.996094 237.605469 329.546875 C 236.808594 329.097656 236.0625 328.582031 235.359375 328 C 234.65625 327.414062 234.011719 326.773438 233.425781 326.074219 C 232.835938 325.371094 232.316406 324.625 231.867188 323.832031 C 231.414062 323.039062 231.035156 322.210938 230.734375 321.347656 C 230.429688 320.484375 230.207031 319.601562 230.0625 318.699219 L 215.128906 239.664062 C 237.066406 230.324219 258.207031 219.433594 278.550781 206.996094 C 276.054688 212.222656 274.089844 217.640625 272.660156 223.253906 C 271.234375 228.867188 270.367188 234.566406 270.0625 240.351562 Z M 352.914062 122.285156 C 352.921875 124.796875 352.605469 127.269531 351.964844 129.699219 C 351.324219 132.125 350.382812 134.433594 349.136719 136.613281 C 338.105469 155.328125 319.738281 168.582031 302.101562 180.8125 C 305.296875 170.339844 307.953125 159.734375 310.070312 148.992188 C 318.773438 142.402344 326.976562 135.246094 334.6875 127.523438 C 339.691406 122.402344 344.203125 116.878906 348.214844 110.953125 C 349.652344 112.5 350.773438 114.25 351.582031 116.199219 C 352.386719 118.148438 352.832031 120.175781 352.914062 122.285156 Z M 350.84375 94.214844 C 344.546875 112.6875 327.296875 126.320312 312.089844 138.074219 C 319.25 106.40625 298.585938 77.390625 273.257812 66.4375 C 281.480469 65.449219 289.734375 64.777344 297.988281 64.613281 C 317.453125 64.390625 357.503906 65.890625 350.84375 94.214844 Z M 350.84375 94.214844 " fill-opacity="1" fill-rule="nonzero"/></svg>