<svg xmlns="http://www.w3.org/2000/svg" xmlns:xlink="http://www.w3.org/1999/xlink" width="500" zoomAndPan="magnify" viewBox="0 0 375 374.999991" height="500" preserveAspectRatio="xMidYMid meet" version="1.0"><defs><clipPath id="31c2f2ff32"><path d="M 3 115.078125 L 372 115.078125 L 372 259.828125 L 3 259.828125 Z M 3 115.078125 " clip-rule="nonzero"/></clipPath></defs><g clip-path="url(#31c2f2ff32)"><path fill="#660000" d="M 137.765625 173.230469 C 145.796875 173.363281 153.90625 173.488281 164.664062 173.511719 L 164.664062 176.722656 C 164.664062 184.574219 171.097656 191.03125 178.941406 191.03125 L 195.21875 191.03125 C 203.074219 191.03125 209.558594 184.570312 209.558594 176.722656 L 209.558594 173.511719 C 220.128906 173.488281 228.109375 173.363281 236.046875 173.230469 C 235.601562 174.394531 235.132812 175.53125 234.574219 176.667969 C 229.246094 187.304688 225.972656 191.984375 224.082031 203.230469 C 221.5 218.570312 222.890625 225.878906 214.703125 241.871094 C 211.339844 248.414062 207.699219 249.5 205.839844 249.285156 C 203.976562 249.082031 202.425781 247.996094 202.425781 244.203125 L 202.425781 228.546875 C 202.425781 223.398438 201.601562 218.828125 199 215.109375 C 196.363281 211.363281 191.710938 209.222656 186.90625 209.222656 C 182.097656 209.222656 177.449219 211.363281 174.8125 215.109375 C 172.195312 218.828125 171.375 223.402344 171.375 228.546875 L 171.375 244.203125 C 171.375 248.003906 169.820312 249.082031 167.960938 249.285156 C 166.101562 249.5 162.460938 248.414062 159.097656 241.871094 C 150.910156 225.878906 152.304688 218.570312 149.714844 203.230469 C 147.855469 191.984375 144.582031 187.304688 139.234375 176.667969 C 138.667969 175.53125 138.234375 174.394531 137.765625 173.230469 Z M 284.484375 156.054688 L 300.707031 156.054688 C 303.03125 156.054688 304.738281 157.738281 304.738281 160.058594 L 304.738281 176.726562 C 304.738281 179.042969 303.03125 180.753906 300.707031 180.753906 L 284.484375 180.753906 C 282.160156 180.753906 280.429688 179.046875 280.429688 176.726562 L 280.429688 160.058594 C 280.429688 157.738281 282.164062 156.054688 284.484375 156.054688 Z M 178.941406 156.054688 L 195.21875 156.054688 C 197.542969 156.054688 199.25 157.738281 199.25 160.058594 L 199.25 176.726562 C 199.25 179.042969 197.542969 180.753906 195.21875 180.753906 L 178.941406 180.753906 C 176.617188 180.753906 174.941406 179.046875 174.941406 176.726562 L 174.941406 160.058594 C 174.941406 157.738281 176.617188 156.054688 178.941406 156.054688 Z M 73.457031 156.054688 L 89.730469 156.054688 C 92.058594 156.054688 93.742188 157.738281 93.742188 160.058594 L 93.742188 176.726562 C 93.742188 179.042969 92.058594 180.753906 89.730469 180.753906 L 73.457031 180.753906 C 71.128906 180.753906 69.421875 179.046875 69.421875 176.726562 L 69.421875 160.058594 C 69.425781 157.738281 71.132812 156.054688 73.457031 156.054688 Z M 52.585938 125.5625 C 57.832031 125.5625 62.679688 126.988281 67.285156 128.695312 C 71.886719 130.371094 75.964844 132.464844 80.644531 133.140625 C 86.941406 134.089844 91.746094 131.382812 95.808594 129.394531 C 99.863281 127.378906 103.742188 125.5625 110.585938 125.5625 C 117.667969 125.5625 123.664062 129.519531 128.023438 136.339844 C 128.207031 136.625 128.410156 136.878906 128.625 137.136719 C 126.863281 141.199219 125.625 145.589844 124.984375 150.1875 C 124.027344 156.980469 134.253906 158.402344 135.21875 151.605469 C 136.273438 144.140625 139.25 137.417969 143.355469 132.796875 C 147.433594 128.144531 152.367188 125.558594 158.105469 125.558594 C 163.328125 125.558594 168.207031 126.984375 172.78125 128.691406 C 177.386719 130.367188 181.511719 132.304688 186.140625 133.132812 C 186.703125 133.238281 187.167969 133.214844 187.695312 133.132812 C 192.359375 132.515625 196.453125 130.367188 201.042969 128.691406 C 205.644531 126.984375 210.496094 125.558594 215.75 125.558594 C 221.453125 125.558594 226.390625 128.144531 230.496094 132.796875 C 234.585938 137.417969 237.582031 144.140625 238.617188 151.605469 C 239.5625 158.402344 249.796875 156.980469 248.851562 150.1875 C 248.230469 145.742188 247.011719 141.480469 245.363281 137.527344 C 245.644531 137.167969 245.921875 136.808594 246.15625 136.339844 C 250.554688 129.519531 256.542969 125.5625 263.597656 125.5625 C 270.476562 125.5625 274.351562 127.378906 278.398438 129.394531 C 282.457031 131.378906 287.234375 134.089844 293.542969 133.140625 C 298.222656 132.464844 302.328125 130.371094 306.921875 128.695312 C 311.496094 126.988281 316.375 125.5625 321.597656 125.5625 C 328.03125 125.5625 333.503906 128.847656 337.769531 134.585938 C 341.441406 139.46875 343.871094 146.160156 344.589844 153.390625 C 337.101562 155.515625 327.441406 157.398438 314.960938 158.847656 C 314.3125 151.5625 308.160156 145.722656 300.722656 145.722656 L 284.5 145.722656 C 276.644531 145.722656 270.160156 152.210938 270.160156 160.0625 L 270.160156 161.980469 C 251.636719 162.777344 236.308594 163.164062 209.570312 163.195312 L 209.570312 160.070312 C 209.570312 152.214844 203.085938 145.726562 195.226562 145.726562 L 178.953125 145.726562 C 171.105469 145.726562 164.671875 152.214844 164.671875 160.070312 L 164.671875 163.195312 C 137.90625 163.167969 122.609375 162.777344 104.082031 161.980469 L 104.082031 160.0625 C 104.082031 152.210938 97.597656 145.722656 89.742188 145.722656 L 73.464844 145.722656 C 66.023438 145.722656 59.882812 151.5625 59.265625 158.847656 C 46.785156 157.398438 37.09375 155.515625 29.601562 153.390625 C 30.355469 146.164062 32.78125 139.46875 36.421875 134.585938 C 40.703125 128.84375 46.171875 125.5625 52.585938 125.5625 Z M 52.585938 115.285156 C 42.5625 115.285156 33.925781 120.660156 28.113281 128.382812 C 23.648438 134.375 20.730469 141.792969 19.566406 149.796875 C 16.152344 148.222656 13.539062 146.570312 11.863281 144.917969 C 10.910156 143.914062 9.570312 143.34375 8.175781 143.34375 C 3.542969 143.316406 1.25 148.972656 4.582031 152.207031 C 8.636719 156.257812 14.296875 159.414062 21.757812 161.96875 C 22.050781 162.128906 22.328125 162.195312 22.640625 162.28125 C 31.789062 165.328125 43.644531 167.5 59.121094 169.230469 L 59.121094 176.726562 C 59.121094 184.578125 65.613281 191.035156 73.460938 191.035156 L 89.734375 191.035156 C 97.59375 191.035156 104.074219 184.574219 104.074219 176.726562 L 104.074219 172.28125 C 111.78125 172.617188 119.109375 172.820312 126.816406 173.03125 C 127.355469 174.761719 127.976562 176.46875 128.675781 178.175781 C 123.839844 187.679688 120.738281 192.589844 118.957031 203.234375 C 116.378906 218.578125 117.777344 225.882812 109.578125 241.875 C 106.222656 248.417969 102.582031 249.503906 100.722656 249.292969 C 98.832031 249.089844 97.308594 248.003906 97.308594 244.207031 L 97.308594 228.550781 C 97.308594 223.402344 96.476562 218.808594 93.824219 215.066406 C 91.160156 211.316406 86.480469 209.226562 81.59375 209.226562 C 76.710938 209.226562 72.042969 211.316406 69.347656 215.066406 C 66.695312 218.804688 65.890625 223.402344 65.890625 228.550781 L 65.890625 244.207031 C 65.890625 248.007812 64.339844 249.089844 62.476562 249.292969 C 60.617188 249.503906 56.976562 248.417969 53.613281 241.875 C 45.429688 225.882812 46.824219 218.578125 44.234375 203.234375 C 42.355469 191.988281 39.070312 187.3125 33.753906 176.671875 C 32.820312 174.730469 30.804688 173.597656 28.6875 173.753906 C 24.996094 174.039062 22.769531 178.015625 24.5 181.320312 C 30.082031 192.40625 32.457031 195.066406 34.113281 204.902344 C 36.492188 219.0625 35.457031 228.960938 44.472656 246.546875 C 49.105469 255.597656 56.4375 260.320312 63.59375 259.550781 C 70.726562 258.777344 76.226562 252.109375 76.226562 244.203125 L 76.226562 228.546875 C 76.226562 224.59375 77.050781 222.136719 77.75 221.027344 C 79.175781 218.726562 84 218.726562 85.453125 221.027344 C 86.125 222.136719 86.976562 224.59375 86.976562 228.546875 L 86.976562 244.203125 C 86.976562 252.109375 92.480469 258.777344 99.613281 259.550781 C 106.769531 260.320312 114.105469 255.601562 118.730469 246.546875 C 127.746094 228.960938 126.738281 219.0625 129.097656 204.902344 C 130.183594 198.476562 131.964844 194.464844 134.367188 189.785156 C 136.746094 194.464844 138.527344 198.472656 139.613281 204.902344 C 141.988281 219.0625 140.957031 228.960938 149.96875 246.546875 C 154.601562 255.597656 161.984375 260.320312 169.113281 259.550781 C 176.269531 258.777344 181.726562 252.109375 181.726562 244.203125 L 181.726562 228.546875 C 181.726562 224.59375 182.578125 222.113281 183.277344 221.003906 C 184.519531 218.957031 189.214844 218.804688 190.585938 221.003906 C 191.285156 222.136719 192.117188 224.59375 192.117188 228.546875 L 192.117188 244.203125 C 192.117188 252.109375 197.621094 258.777344 204.753906 259.550781 C 211.898438 260.320312 219.246094 255.601562 223.871094 246.546875 C 232.886719 228.960938 231.878906 219.0625 234.226562 204.902344 C 235.34375 198.3125 237.203125 194.261719 239.683594 189.460938 C 242.164062 194.261719 243.992188 198.3125 245.109375 204.902344 C 247.484375 219.0625 246.453125 228.960938 255.46875 246.546875 C 260.121094 255.597656 267.480469 260.320312 274.609375 259.550781 C 281.765625 258.777344 287.222656 252.109375 287.222656 244.203125 L 287.222656 228.546875 C 287.222656 224.59375 287.96875 222.082031 288.777344 221.027344 C 290.375 218.859375 294.765625 218.828125 296.449219 221.027344 C 297.242188 222.082031 298.003906 224.59375 298.003906 228.546875 L 298.003906 244.203125 C 298.003906 252.109375 303.503906 258.777344 310.636719 259.550781 C 317.769531 260.320312 325.132812 255.601562 329.753906 246.546875 C 338.773438 228.960938 337.765625 219.0625 340.140625 204.902344 C 341.796875 195.066406 344.144531 192.402344 349.707031 181.320312 C 352.804688 175.140625 343.585938 170.492188 340.484375 176.667969 C 335.136719 187.304688 331.851562 191.984375 329.960938 203.230469 C 327.402344 218.570312 328.78125 225.878906 320.582031 241.871094 C 317.25 248.414062 313.609375 249.5 311.726562 249.285156 C 309.867188 249.082031 308.335938 247.996094 308.335938 244.203125 L 308.335938 228.546875 C 308.335938 223.398438 307.511719 218.804688 304.847656 215.058594 C 302.195312 211.308594 297.488281 209.222656 292.601562 209.222656 C 287.746094 209.222656 283.046875 211.308594 280.382812 215.058594 C 277.71875 218.800781 276.925781 223.398438 276.925781 228.546875 L 276.925781 244.203125 C 276.925781 248.003906 275.375 249.082031 273.511719 249.285156 C 271.625 249.5 268.03125 248.414062 264.679688 241.871094 C 256.484375 225.878906 257.828125 218.570312 255.273438 203.230469 C 253.464844 192.457031 250.3125 187.566406 245.324219 177.777344 C 245.972656 176.207031 246.542969 174.621094 247.058594 173.027344 C 254.917969 172.847656 262.355469 172.613281 270.183594 172.277344 L 270.183594 176.722656 C 270.183594 184.574219 276.667969 191.03125 284.527344 191.03125 L 300.746094 191.03125 C 308.601562 191.03125 315.109375 184.570312 315.109375 176.722656 L 315.109375 169.226562 C 343.972656 166.027344 360.527344 161.300781 369.625 152.203125 C 373.039062 148.917969 370.601562 143.179688 365.90625 143.335938 C 364.53125 143.367188 363.273438 143.9375 362.339844 144.914062 C 360.652344 146.566406 358.078125 148.195312 354.683594 149.769531 C 353.503906 141.765625 350.558594 134.367188 346.082031 128.378906 C 340.300781 120.652344 331.648438 115.28125 321.621094 115.28125 C 314.566406 115.28125 308.414062 117.167969 303.375 119.027344 C 298.335938 120.882812 294.179688 122.617188 292.039062 122.925781 C 289.265625 123.335938 287.332031 122.25 282.992188 120.113281 C 278.652344 117.964844 272.453125 115.28125 263.617188 115.28125 C 253.878906 115.28125 245.511719 120.339844 239.699219 127.757812 C 239.230469 127.167969 238.765625 126.546875 238.253906 125.976562 C 232.59375 119.566406 224.710938 115.28125 215.777344 115.28125 C 208.695312 115.28125 202.523438 117.167969 197.484375 119.027344 C 192.808594 120.761719 189.191406 122.207031 186.945312 122.667969 C 184.699219 122.207031 181.101562 120.757812 176.402344 119.027344 C 171.363281 117.167969 165.183594 115.28125 158.128906 115.28125 C 149.164062 115.28125 141.289062 119.566406 135.632812 125.976562 C 135.21875 126.46875 134.800781 126.984375 134.394531 127.5 C 128.582031 120.246094 120.285156 115.285156 110.617188 115.285156 C 101.8125 115.285156 95.613281 117.96875 91.273438 120.117188 C 86.933594 122.261719 84.992188 123.34375 82.234375 122.929688 C 80.082031 122.617188 75.957031 120.886719 70.921875 119.03125 C 65.839844 117.171875 59.660156 115.285156 52.585938 115.285156 Z M 52.585938 115.285156 " fill-opacity="1" fill-rule="nonzero"/></g></svg>