<svg xmlns="http://www.w3.org/2000/svg" xmlns:xlink="http://www.w3.org/1999/xlink" width="500" zoomAndPan="magnify" viewBox="0 0 375 374.999991" height="500" preserveAspectRatio="xMidYMid meet" version="1.0"><path fill="#660000" d="M 98.503906 81.410156 L 98.53125 81.410156 Z M 98.480469 186.707031 C 106.070312 186.707031 111.90625 189.097656 115.886719 193.792969 C 125.652344 205.335938 121.832031 228.425781 118.433594 248.804688 C 116.230469 261.964844 113.765625 276.90625 117.132812 280.886719 C 117.53125 281.339844 118.117188 281.816406 119.550781 281.816406 C 123.636719 281.816406 127.457031 279.585938 130.933594 275.183594 C 146.539062 255.386719 150.464844 199.074219 142.769531 166.832031 C 141.152344 160.144531 146.035156 150.777344 151.6875 139.921875 C 156.992188 129.707031 163.042969 118.109375 163.042969 109.21875 C 163.042969 90.910156 155.292969 71.21875 138.335938 71.21875 C 128.996094 71.21875 123.953125 74.507812 118.59375 77.984375 C 113.261719 81.460938 107.742188 85.042969 98.53125 85.042969 C 98.503906 85.042969 98.503906 85.042969 98.480469 85.042969 C 89.269531 85.042969 83.75 81.460938 78.417969 77.984375 C 73.054688 74.507812 68.015625 71.21875 58.699219 71.21875 C 41.714844 71.21875 33.96875 90.910156 33.96875 109.21875 C 33.96875 118.109375 40.019531 129.707031 45.324219 139.949219 C 50.976562 150.777344 55.859375 160.144531 54.242188 166.832031 C 46.546875 199.074219 50.472656 255.386719 66.078125 275.183594 C 69.554688 279.585938 73.375 281.816406 77.460938 281.816406 C 78.894531 281.816406 79.503906 281.339844 79.875 280.886719 C 83.246094 276.90625 80.777344 261.964844 78.574219 248.804688 C 75.179688 228.425781 71.332031 205.335938 81.125 193.792969 C 85.105469 189.097656 90.941406 186.707031 98.480469 186.707031 Z M 119.550781 288.609375 C 116.417969 288.609375 113.789062 287.46875 111.960938 285.292969 C 106.546875 278.898438 108.828125 265.125 111.746094 247.691406 C 114.878906 228.769531 118.433594 207.328125 110.6875 198.171875 C 108.03125 195.039062 104.050781 193.5 98.53125 193.5 C 92.960938 193.5 88.980469 195.039062 86.296875 198.171875 C 78.550781 207.328125 82.132812 228.769531 85.261719 247.691406 C 88.183594 265.125 90.464844 278.898438 85.050781 285.292969 C 83.21875 287.46875 80.59375 288.609375 77.460938 288.609375 C 71.199219 288.609375 65.574219 285.503906 60.769531 279.402344 C 43.574219 257.613281 39.539062 199.128906 47.660156 165.238281 C 48.640625 161.046875 43.890625 151.917969 39.300781 143.082031 C 33.621094 132.148438 27.175781 119.753906 27.175781 109.21875 C 27.175781 87.644531 37.046875 64.425781 58.699219 64.425781 C 70.03125 64.425781 76.453125 68.589844 82.132812 72.28125 C 86.777344 75.332031 90.835938 77.960938 97.335938 78.222656 C 98.082031 77.933594 98.984375 77.960938 99.726562 78.222656 C 106.203125 77.933594 110.234375 75.304688 114.878906 72.28125 C 120.558594 68.589844 126.980469 64.425781 138.335938 64.425781 C 159.964844 64.425781 169.835938 87.644531 169.835938 109.21875 C 169.835938 119.753906 163.386719 132.148438 157.710938 143.082031 C 153.117188 151.917969 148.367188 161.019531 149.351562 165.238281 C 157.472656 199.152344 153.4375 257.613281 136.269531 279.402344 C 131.4375 285.503906 125.8125 288.609375 119.550781 288.609375 " fill-opacity="1" fill-rule="nonzero"/><path fill="#660000" d="M 195.152344 227.125 L 195.234375 227.125 Z M 243.636719 296.785156 C 249.183594 296.785156 253.800781 297.445312 256.90625 299.597656 C 282.910156 317.402344 320.382812 326.875 340.46875 320.667969 C 347.105469 318.625 351.484375 314.988281 353.5 309.867188 C 354.003906 308.511719 353.792969 307.847656 353.527344 307.371094 C 351.113281 303.074219 336.621094 300.550781 323.832031 298.324219 C 304.007812 294.871094 281.53125 290.945312 274.3125 278.179688 C 271.339844 272.898438 271.207031 266.636719 273.96875 259.550781 C 273.996094 259.5 274.019531 259.445312 274.046875 259.394531 C 276.859375 252.253906 281.238281 247.582031 287.105469 245.488281 C 300.851562 240.578125 319.636719 251.167969 336.222656 260.507812 C 346.945312 266.558594 359.074219 273.351562 363.824219 271.679688 C 364.40625 271.46875 365.121094 271.042969 365.707031 269.554688 C 367.777344 264.195312 367.035156 258.4375 363.425781 252.386719 C 353.074219 234.953125 320.886719 218.234375 290.183594 214.304688 C 283.441406 213.429688 276.382812 205.972656 268.210938 197.296875 C 260.59375 189.230469 251.96875 180.101562 243.820312 176.996094 C 226.996094 170.601562 206.113281 170.863281 199.957031 186.628906 C 196.613281 195.253906 197.808594 201.089844 199.054688 207.246094 C 200.328125 213.378906 201.628906 219.71875 198.390625 228.183594 C 198.335938 228.34375 198.257812 228.503906 198.179688 228.636719 C 194.992188 236.890625 189.714844 240.738281 184.589844 244.480469 C 179.445312 248.195312 174.613281 251.75 171.242188 260.375 C 169.253906 265.441406 169.386719 270.539062 171.589844 275.5 C 176.019531 285.480469 187.722656 292.910156 197.222656 296.492188 C 205.371094 299.621094 217.976562 298.5625 229.09375 297.632812 C 234.347656 297.207031 239.285156 296.785156 243.636719 296.785156 Z M 325.714844 329.425781 C 302.042969 329.425781 272.589844 318.570312 253.082031 305.195312 C 249.5 302.726562 239.417969 303.578125 229.652344 304.398438 C 217.816406 305.40625 204.414062 306.523438 194.78125 302.859375 C 180.851562 297.554688 169.863281 288.371094 165.378906 278.261719 C 162.40625 271.574219 162.246094 264.726562 164.902344 257.90625 C 168.988281 247.425781 175.144531 242.941406 180.585938 238.984375 C 185.308594 235.5625 189.367188 232.589844 191.96875 225.984375 C 191.96875 225.929688 191.996094 225.902344 191.996094 225.851562 C 194.597656 219.1875 193.585938 214.304688 192.421875 208.628906 C 191.066406 202.074219 189.554688 194.640625 193.640625 184.160156 C 201.441406 164.097656 226.386719 163.089844 246.210938 170.652344 C 255.84375 174.316406 265.050781 184.054688 273.144531 192.625 C 279.832031 199.710938 286.734375 207.007812 291.03125 207.566406 C 324.148438 211.785156 357.773438 229.566406 369.261719 248.910156 C 373.90625 256.738281 374.863281 264.726562 372.023438 272.023438 C 370.882812 274.996094 368.8125 277.09375 366.105469 278.074219 C 358.4375 280.808594 347.15625 274.464844 332.878906 266.425781 C 317.570312 257.800781 300.214844 248.035156 289.359375 251.882812 C 285.378906 253.316406 282.40625 256.605469 280.3125 261.992188 C 278.292969 267.167969 278.265625 271.386719 280.230469 274.835938 C 285.855469 284.816406 307.5625 288.582031 325 291.636719 C 342.007812 294.605469 355.4375 296.941406 359.445312 304.054688 C 360.425781 305.78125 361.273438 308.617188 359.816406 312.335938 C 357.082031 319.394531 351.085938 324.515625 342.488281 327.167969 C 337.445312 328.707031 331.765625 329.425781 325.714844 329.425781 " fill-opacity="1" fill-rule="nonzero"/><path fill="#660000" d="M 47.6875 176.332031 C 46.359375 176.332031 45.113281 175.5625 44.554688 174.289062 C 44.289062 173.679688 38.082031 159.535156 23.777344 159.535156 C 14.304688 159.535156 11.835938 161.710938 9.84375 163.460938 C 8.414062 164.734375 6.609375 166.328125 3.398438 166.328125 C 1.511719 166.328125 0 164.816406 0 162.929688 C 0 161.046875 1.511719 159.535156 3.398438 159.535156 C 3.953125 159.535156 4.113281 159.453125 5.359375 158.367188 C 8.570312 155.527344 12.65625 152.742188 23.777344 152.742188 C 42.644531 152.742188 50.472656 170.863281 50.820312 171.632812 C 51.535156 173.359375 50.738281 175.351562 49.015625 176.066406 C 48.5625 176.253906 48.113281 176.332031 47.6875 176.332031 " fill-opacity="1" fill-rule="nonzero"/><path fill="#660000" d="M 370.246094 200.292969 C 330.226562 200.292969 309.953125 185.273438 290.339844 170.734375 C 273.144531 157.996094 256.90625 145.945312 227.820312 145.945312 C 209.511719 145.945312 198.734375 152.234375 190.085938 157.277344 C 183.820312 160.914062 178.433594 164.070312 171.933594 164.070312 C 160.707031 164.070312 146.722656 166.246094 146.589844 166.273438 C 144.734375 166.566406 142.980469 165.320312 142.714844 163.460938 C 142.425781 161.605469 143.671875 159.878906 145.527344 159.585938 C 146.113281 159.480469 160.175781 157.277344 171.933594 157.277344 C 176.578125 157.277344 181.035156 154.675781 186.660156 151.414062 C 196.027344 145.945312 207.679688 139.152344 227.820312 139.152344 C 259.132812 139.152344 277.046875 152.449219 294.375 165.265625 C 313.109375 179.144531 332.480469 193.5 370.246094 193.5 C 372.128906 193.5 373.640625 195.015625 373.640625 196.898438 C 373.640625 198.78125 372.128906 200.292969 370.246094 200.292969 " fill-opacity="1" fill-rule="nonzero"/></svg>