<svg xmlns="http://www.w3.org/2000/svg" xmlns:xlink="http://www.w3.org/1999/xlink" width="500" zoomAndPan="magnify" viewBox="0 0 375 374.999991" height="500" preserveAspectRatio="xMidYMid meet" version="1.0"><defs><clipPath id="13b823ab64"><path d="M 87 0 L 368.859375 0 L 368.859375 104 L 87 104 Z M 87 0 " clip-rule="nonzero"/></clipPath></defs><path fill="#660000" d="M 17.742188 146.972656 C 15.839844 150.003906 15.183594 153.324219 15.921875 156.113281 C 16.554688 158.488281 18.179688 160.390625 20.738281 161.75 C 23.539062 163.25 27.945312 164.058594 31.023438 162.339844 C 33.339844 161.035156 34.640625 158.304688 34.871094 154.246094 C 35.195312 148.34375 30.203125 146.097656 28.035156 145.417969 C 23.402344 143.929688 18.964844 145.023438 17.742188 146.972656 Z M 26.941406 172.160156 C 23.023438 172.160156 19.285156 171.007812 16.578125 169.566406 C 11.828125 167.042969 8.636719 163.167969 7.367188 158.398438 C 5.996094 153.242188 7.042969 147.363281 10.25 142.269531 C 14.308594 135.800781 23.621094 134.707031 30.734375 136.976562 C 39.195312 139.675781 44.175781 146.488281 43.703125 154.742188 C 43.195312 163.804688 38.882812 168.070312 35.367188 170.050781 C 32.683594 171.5625 29.765625 172.160156 26.941406 172.160156 " fill-opacity="1" fill-rule="nonzero"/><path fill="#660000" d="M 301.488281 160.816406 L 301.519531 160.816406 Z M 308.679688 162.085938 C 306.960938 162.085938 305.601562 162.59375 305.234375 163.179688 C 304.011719 165.128906 303.574219 167.238281 304.035156 168.96875 C 304.414062 170.398438 305.417969 171.539062 306.996094 172.378906 C 308.839844 173.371094 311.640625 173.84375 313.441406 172.828125 C 314.777344 172.082031 315.527344 170.398438 315.664062 167.828125 C 315.851562 164.609375 313.488281 163.15625 311.46875 162.523438 C 310.488281 162.210938 309.542969 162.085938 308.679688 162.085938 Z M 311.019531 182.238281 C 307.917969 182.238281 304.980469 181.335938 302.847656 180.207031 C 299.054688 178.191406 296.507812 175.089844 295.480469 171.25 C 294.398438 167.148438 295.214844 162.488281 297.738281 158.464844 C 301.046875 153.210938 308.507812 152.277344 314.15625 154.085938 C 320.910156 156.242188 324.886719 161.695312 324.507812 168.332031 C 324.105469 175.515625 320.621094 178.941406 317.773438 180.542969 C 315.621094 181.765625 313.28125 182.238281 311.019531 182.238281 " fill-opacity="1" fill-rule="nonzero"/><path fill="#660000" d="M 54.574219 69.621094 C 48.84375 69.621094 43.597656 73.933594 40.796875 78.488281 C 38.628906 82.003906 37.144531 87.015625 39.449219 90.53125 C 42.859375 95.753906 48.257812 99.292969 53.203125 99.535156 C 56.660156 99.699219 59.644531 98.257812 62.089844 95.238281 C 66.136719 90.199219 67.359375 82.359375 64.996094 76.597656 C 63.832031 73.785156 61.304688 70.300781 55.839844 69.691406 C 55.414062 69.644531 55 69.621094 54.574219 69.621094 Z M 53.730469 108.402344 C 53.410156 108.402344 53.085938 108.402344 52.761719 108.378906 C 44.960938 107.996094 37.027344 103.019531 32.035156 95.386719 C 28.152344 89.449219 28.613281 81.390625 33.257812 73.851562 C 38.722656 64.976562 47.992188 59.890625 56.832031 60.894531 C 64.347656 61.738281 70.308594 66.234375 73.179688 73.230469 C 76.765625 81.933594 75.035156 93.277344 68.984375 100.792969 C 64.996094 105.726562 59.609375 108.402344 53.730469 108.402344 " fill-opacity="1" fill-rule="nonzero"/><path fill="#660000" d="M 259.285156 89.566406 L 259.304688 89.566406 Z M 270.441406 87.097656 C 270.28125 87.097656 270.121094 87.109375 269.957031 87.109375 C 266.867188 87.257812 264.621094 88.734375 263.25 91.511719 C 261.277344 95.546875 263.03125 100.65625 265.660156 103.941406 C 267.503906 106.246094 270.453125 108.445312 273.230469 107.789062 C 277.703125 106.71875 281.484375 103.894531 282.859375 100.574219 C 283.792969 98.335938 283.539062 96.101562 282.097656 93.738281 C 279.710938 89.828125 274.878906 87.097656 270.441406 87.097656 Z M 272.195312 116.769531 C 267.363281 116.769531 262.511719 114.175781 258.742188 109.472656 C 253.414062 102.796875 252.054688 94.222656 255.304688 87.617188 C 258.074219 81.96875 263.273438 78.554688 269.554688 78.265625 C 277.210938 77.921875 285.53125 82.371094 289.660156 89.125 C 292.550781 93.863281 293.046875 99.144531 291.042969 103.972656 C 288.574219 109.898438 282.546875 114.660156 275.296875 116.402344 C 274.269531 116.644531 273.230469 116.769531 272.195312 116.769531 " fill-opacity="1" fill-rule="nonzero"/><path fill="#660000" d="M 237.4375 268.984375 C 228.804688 284.328125 224.828125 303.84375 221.324219 321.054688 C 215.789062 348.191406 211.742188 364.710938 198.695312 362.496094 C 191.40625 361.273438 188.433594 332.9375 186.472656 314.183594 C 183.292969 283.738281 180.546875 257.445312 164.699219 257.445312 C 148.859375 257.445312 146.105469 283.738281 142.921875 314.195312 C 140.949219 332.9375 137.988281 361.273438 130.691406 362.496094 C 117.664062 364.6875 113.605469 348.191406 108.074219 321.054688 C 104.570312 303.84375 100.59375 284.328125 91.957031 268.984375 C 71.402344 232.441406 51.082031 181.683594 71.035156 147.457031 C 79.832031 132.367188 96.59375 125.785156 113.859375 125.785156 C 124.292969 125.785156 134.910156 128.195312 144.050781 132.585938 C 144.214844 132.667969 145.367188 133.21875 145.734375 133.417969 C 150.839844 136.042969 153.675781 138.949219 156.445312 141.773438 C 160.191406 145.601562 164.085938 149.566406 172.097656 150.363281 C 172.25 150.375 172.398438 150.386719 172.535156 150.386719 C 174.785156 150.386719 176.710938 148.667969 176.941406 146.386719 C 177.183594 143.953125 175.394531 141.785156 172.964844 141.542969 C 169.125 141.175781 167.050781 139.757812 164.664062 137.460938 C 171.601562 137.472656 178.542969 135.917969 184.871094 132.816406 C 209.160156 120.898438 244.160156 123.097656 258.359375 147.457031 C 278.316406 181.683594 257.992188 232.441406 237.4375 268.984375 Z M 266.003906 142.996094 C 249.023438 113.855469 209.425781 110.902344 180.964844 124.875 C 171.382812 129.566406 160.050781 129.855469 150.265625 125.703125 C 149.644531 125.449219 147.359375 124.355469 146.839844 124.113281 C 118.519531 111.019531 80.0625 114.394531 63.390625 142.996094 C 41.328125 180.839844 62.550781 234.757812 84.246094 273.316406 C 92.199219 287.460938 96.027344 306.253906 99.40625 322.828125 C 104.867188 349.640625 110 374.96875 132.167969 371.234375 C 146.09375 368.882812 148.710938 343.960938 151.730469 315.117188 C 153.757812 295.667969 156.835938 266.296875 164.699219 266.296875 C 172.570312 266.296875 175.636719 295.667969 177.667969 315.117188 C 180.6875 343.960938 183.292969 368.882812 197.230469 371.234375 C 198.695312 371.476562 200.089844 371.601562 201.414062 371.601562 C 220.054688 371.601562 224.882812 347.855469 229.992188 322.828125 C 233.367188 306.253906 237.195312 287.460938 245.148438 273.316406 C 266.84375 234.757812 288.066406 180.839844 266.003906 142.996094 " fill-opacity="1" fill-rule="nonzero"/><g clip-path="url(#13b823ab64)"><path fill="#660000" d="M 225.484375 73.355469 C 226.324219 80.769531 227.050781 87.167969 224.769531 89.195312 C 222.082031 91.59375 218.441406 91.46875 213.957031 88.828125 C 210.199219 86.613281 205.34375 87.695312 202.914062 91.28125 C 201.242188 93.761719 198.472656 95.050781 194.691406 95.097656 C 191.707031 95.167969 189.078125 93.507812 186.808594 90.246094 C 185.414062 88.238281 183.234375 86.972656 180.8125 86.761719 C 178.371094 86.542969 175.960938 87.421875 174.207031 89.171875 C 167.339844 96.03125 158.082031 91.59375 153.171875 88.332031 C 150.046875 86.269531 145.917969 86.566406 143.128906 89.070312 C 141.03125 90.960938 136.707031 94.050781 131.3125 93.4375 C 128.441406 93.117188 126.519531 91.941406 125.433594 89.828125 C 124.351562 87.71875 122.425781 86.164062 120.167969 85.554688 C 117.988281 84.964844 115.648438 85.324219 113.746094 86.542969 C 112.109375 87.59375 106.507812 90.796875 103.300781 87.582031 C 100.152344 84.433594 101.273438 78.5 103.507812 68.273438 C 105.46875 59.328125 107.785156 48.398438 107.035156 35.476562 C 110.886719 35.429688 119.925781 35.328125 131.75 35.210938 C 131.785156 36.074219 131.832031 36.882812 131.878906 37.644531 C 132.179688 42.921875 132.363281 46.117188 130.046875 59.902344 C 129.640625 62.3125 131.277344 64.59375 133.6875 65 C 133.929688 65.046875 134.171875 65.058594 134.425781 65.058594 C 136.546875 65.058594 138.414062 63.523438 138.785156 61.367188 C 141.25 46.601562 141.042969 42.84375 140.71875 37.148438 C 140.6875 36.515625 140.640625 35.832031 140.605469 35.128906 C 147.335938 35.0625 154.644531 35.003906 162.207031 34.933594 C 162.359375 40.800781 161.597656 49.921875 161.226562 53.585938 C 160.976562 56.019531 162.738281 58.1875 165.171875 58.441406 C 165.332031 58.453125 165.480469 58.460938 165.632812 58.460938 C 167.867188 58.460938 169.792969 56.769531 170.035156 54.484375 C 170.183594 53.054688 171.234375 42.484375 171.050781 34.878906 C 178.625 34.820312 186.289062 34.773438 193.738281 34.738281 C 193.054688 42.667969 192.421875 51.695312 195.351562 64.308594 C 195.835938 66.347656 197.65625 67.730469 199.660156 67.730469 C 199.996094 67.730469 200.332031 67.695312 200.675781 67.617188 C 203.050781 67.050781 204.539062 64.675781 203.984375 62.300781 C 201.265625 50.636719 201.945312 42.53125 202.625 34.714844 C 211.410156 34.679688 219.652344 34.679688 226.796875 34.714844 C 222.84375 49.957031 224.34375 63.339844 225.484375 73.355469 Z M 364.714844 23.695312 C 363.585938 23.71875 251.273438 26.023438 232.503906 25.898438 C 192.710938 25.585938 105.746094 26.644531 104.925781 26.644531 C 100.464844 26.644531 96.835938 23.027344 96.835938 18.566406 C 96.835938 14.105469 100.464844 10.472656 105.066406 10.460938 C 148.90625 9.066406 178.207031 10.277344 206.542969 11.453125 C 216.148438 11.855469 225.761719 12.25 235.929688 12.558594 C 254.476562 13.101562 360.359375 12.074219 364.855469 12.039062 C 367.296875 12.007812 369.257812 10.011719 369.234375 7.566406 C 369.210938 5.125 367.21875 3.082031 364.761719 3.1875 C 363.667969 3.1875 254.558594 4.257812 236.191406 3.707031 C 226.058594 3.40625 216.480469 3.003906 206.914062 2.609375 C 178.40625 1.433594 148.941406 0.214844 104.925781 1.621094 C 95.578125 1.621094 87.980469 9.214844 87.980469 18.566406 C 87.980469 25.457031 92.128906 31.394531 98.078125 34.035156 C 99.140625 46.625 96.800781 57.527344 94.863281 66.382812 C 92.417969 77.507812 90.320312 87.121094 97.042969 93.839844 C 102.136719 98.9375 110.054688 99.132812 117.847656 94.417969 C 120.351562 98.84375 124.753906 101.609375 130.332031 102.234375 C 138.839844 103.191406 145.355469 98.867188 148.6875 95.984375 C 160.316406 103.511719 171.9375 103.492188 179.984375 95.90625 C 183.867188 101.183594 188.894531 103.953125 194.578125 103.953125 C 194.660156 103.953125 194.738281 103.953125 194.820312 103.953125 C 201.253906 103.859375 206.589844 101.300781 209.921875 96.722656 C 217.597656 101.058594 225.125 100.734375 230.660156 95.8125 C 236.367188 90.730469 235.445312 82.625 234.28125 72.367188 C 233.105469 62.035156 231.730469 49.273438 236.019531 34.75 C 262.121094 34.648438 360.507812 32.640625 364.902344 32.546875 C 367.34375 32.492188 369.292969 30.472656 369.234375 28.03125 C 369.1875 25.585938 367.21875 23.589844 364.714844 23.695312 " fill-opacity="1" fill-rule="nonzero"/></g></svg>